<?xml version="1.0" encoding="UTF-8" standalone="no"?><!DOCTYPE svg PUBLIC "-//W3C//DTD SVG 1.1//EN" "http://www.w3.org/Graphics/SVG/1.1/DTD/svg11.dtd"><!-- Generated by graphviz version 2.40.1 (20161225.0304)
 --><!-- Title: %0 Pages: 1 --><svg xmlns="http://www.w3.org/2000/svg" xmlns:xlink="http://www.w3.org/1999/xlink" width="195pt" height="260pt" viewBox="0.00 0.00 195.30 260.00">
<g id="graph0" class="graph" transform="scale(1 1) rotate(0) translate(4 256)">
<title>%0</title>
<polygon fill="#ffffff" stroke="transparent" points="-4,4 -4,-256 191.2956,-256 191.2956,4 -4,4"/>
<!-- train_validation_split -->
<g id="node1" class="node">
<title>train_validation_split</title>
<ellipse fill="none" stroke="#000000" cx="93.6478" cy="-90" rx="93.7958" ry="18"/>
<text text-anchor="middle" x="93.6478" y="-85.8" font-family="Times,serif" font-size="14.00" fill="#000000">train_validation_split</text>
</g>
<!-- train -->
<g id="node3" class="node">
<title>train</title>
<ellipse fill="none" stroke="#000000" cx="93.6478" cy="-18" rx="28.9696" ry="18"/>
<text text-anchor="middle" x="93.6478" y="-13.8" font-family="Times,serif" font-size="14.00" fill="#000000">train</text>
</g>
<!-- train_validation_split&#45;&gt;train -->
<g id="edge1" class="edge">
<title>train_validation_split-&gt;train</title>
<path fill="none" stroke="#000000" d="M93.6478,-71.8314C93.6478,-64.131 93.6478,-54.9743 93.6478,-46.4166"/>
<polygon fill="#000000" stroke="#000000" points="97.1479,-46.4132 93.6478,-36.4133 90.1479,-46.4133 97.1479,-46.4132"/>
</g>
<!-- prepare_dataset -->
<g id="node2" class="node">
<title>prepare_dataset</title>
<ellipse fill="none" stroke="#000000" cx="93.6478" cy="-234" rx="71.7466" ry="18"/>
<text text-anchor="middle" x="93.6478" y="-229.8" font-family="Times,serif" font-size="14.00" fill="#000000">prepare_dataset</text>
</g>
<!-- balance_data -->
<g id="node4" class="node">
<title>balance_data</title>
<ellipse fill="none" stroke="#000000" cx="93.6478" cy="-162" rx="61.3761" ry="18"/>
<text text-anchor="middle" x="93.6478" y="-157.8" font-family="Times,serif" font-size="14.00" fill="#000000">balance_data</text>
</g>
<!-- prepare_dataset&#45;&gt;balance_data -->
<g id="edge2" class="edge">
<title>prepare_dataset-&gt;balance_data</title>
<path fill="none" stroke="#000000" d="M93.6478,-215.8314C93.6478,-208.131 93.6478,-198.9743 93.6478,-190.4166"/>
<polygon fill="#000000" stroke="#000000" points="97.1479,-190.4132 93.6478,-180.4133 90.1479,-190.4133 97.1479,-190.4132"/>
</g>
<!-- balance_data&#45;&gt;train_validation_split -->
<g id="edge3" class="edge">
<title>balance_data-&gt;train_validation_split</title>
<path fill="none" stroke="#000000" d="M93.6478,-143.8314C93.6478,-136.131 93.6478,-126.9743 93.6478,-118.4166"/>
<polygon fill="#000000" stroke="#000000" points="97.1479,-118.4132 93.6478,-108.4133 90.1479,-118.4133 97.1479,-118.4132"/>
</g>
</g>
</svg>